<?xml version="1.0" standalone="no"?>
<!DOCTYPE svg PUBLIC "-//W3C//DTD SVG 20010904//EN"
 "http://www.w3.org/TR/2001/REC-SVG-20010904/DTD/svg10.dtd">
<svg version="1.0" xmlns="http://www.w3.org/2000/svg"
 width="1520.000000pt" height="1520.000000pt" viewBox="0 0 1520.000000 1520.000000"
 preserveAspectRatio="xMidYMid meet">

<g transform="translate(0.000000,1520.000000) scale(0.100000,-0.100000)"
fill="#000000" stroke="none">
<path d="M7259 14526 c-2 -2 -65 -6 -140 -10 -75 -4 -147 -9 -160 -11 -13 -2
-58 -6 -99 -10 -323 -26 -754 -106 -1120 -206 -1028 -282 -1959 -792 -2750
-1505 -149 -134 -431 -418 -559 -563 -908 -1025 -1503 -2334 -1680 -3696 -11
-82 -22 -186 -26 -230 -4 -44 -8 -91 -10 -105 -26 -158 -26 -1029 0 -1192 2
-13 6 -57 10 -98 3 -41 8 -88 10 -105 2 -16 7 -52 10 -80 3 -27 17 -124 31
-215 183 -1201 680 -2335 1440 -3286 352 -440 806 -878 1259 -1214 890 -660
1939 -1095 3020 -1253 168 -25 209 -30 335 -42 36 -4 79 -8 95 -10 194 -26
1034 -26 1197 0 13 2 61 6 108 10 47 3 94 8 105 10 11 2 47 7 80 10 83 9 105
12 315 46 2402 392 4397 2000 5294 4266 203 512 358 1114 426 1653 6 47 12 99
15 115 2 17 7 66 10 110 4 44 9 88 11 97 25 138 25 1010 -1 1169 -2 13 -6 58
-10 99 -24 279 -96 692 -176 1004 -268 1049 -764 2003 -1479 2842 -158 186
-502 535 -678 687 -1029 896 -2220 1445 -3562 1641 -91 13 -196 27 -235 31
-38 4 -80 8 -92 10 -12 2 -68 6 -125 10 -57 4 -114 9 -128 11 -30 6 -735 16
-741 10z m821 -2119 c14 -3 56 -8 93 -11 581 -52 1232 -251 1777 -544 995
-535 1796 -1447 2215 -2522 88 -224 218 -651 203 -665 -9 -9 -1728 -10 -1968
-2 -129 5 -248 10 -264 11 -28 2 -33 10 -86 131 -82 187 -151 304 -284 480
-76 101 -255 286 -367 380 -372 311 -852 524 -1354 601 -130 20 -530 26 -675
11 -273 -29 -687 -161 -945 -302 -775 -422 -1324 -1237 -1392 -2067 -9 -105
-8 -360 1 -518 35 -583 294 -1155 726 -1603 386 -401 873 -674 1385 -776 55
-11 127 -23 160 -26 33 -4 71 -9 85 -11 68 -12 493 -11 600 2 309 37 582 119
861 259 532 266 966 700 1217 1215 l77 159 253 2 c289 2 1364 2 1727 0 l246
-1 -7 -37 c-4 -21 -31 -122 -60 -226 -294 -1030 -913 -1937 -1734 -2544 -255
-189 -586 -390 -830 -505 -487 -231 -954 -359 -1572 -433 -214 -25 -832 -26
-964 -1 -11 2 -53 7 -94 11 -128 12 -411 62 -582 104 -620 151 -1230 443
-1750 838 -381 289 -755 677 -1026 1063 -245 349 -490 843 -627 1264 -115 354
-196 765 -222 1134 -10 139 -10 576 0 716 50 700 285 1443 655 2071 581 986
1524 1749 2607 2110 375 125 794 210 1140 231 61 4 112 8 114 11 7 5 631 -4
661 -10z"/>
</g>
</svg>
